<?xml version="1.0" standalone="no"?><!DOCTYPE svg PUBLIC "-//W3C//DTD SVG 1.1//EN" "http://www.w3.org/Graphics/SVG/1.1/DTD/svg11.dtd"><svg t="1607343946789" class="icon" viewBox="0 0 1024 1024" version="1.1" xmlns="http://www.w3.org/2000/svg" p-id="8344" xmlns:xlink="http://www.w3.org/1999/xlink" width="128" height="128"><defs><style type="text/css"></style></defs><path d="M512 0a512 512 0 1 0 512 512C1024 229.2224 794.7776 0 512 0z" fill="#ea9518" p-id="8345" data-spm-anchor-id="a313x.7781069.0.i12" class="selected"></path><path d="M560.4608 243.84a72.6016 72.6016 0 0 0-53.888 19.6096 77.3888 77.3888 0 0 0-20.5824 82.176 74.9568 74.9568 0 0 0 66.5344 50.8416h4.1728a72.6784 72.6784 0 0 0 49.6896-19.6096c14.5664-13.568 23.3984-32.3584 24.6272-52.4288a80.3328 80.3328 0 0 0-18.7904-55.424 75.392 75.392 0 0 0-51.7632-25.1648z m35.072 414.8224c-20.8896 17.8944-32.9984 20.8896-37.1712 18.3296-4.1728-2.56-8.7808-49.024 0-82.7136 1.792-5.7856 3.8912-11.4944 6.272-17.0496 16.6912-42.624 48.4352-127.8976 6.2464-144.9472-42.1632-17.0496-153.2416 59.264-175.7952 75.8784-4.1984 2.56-20.0448 12.8-22.5536 23.04v9.7792c3.5072 6.144 9.4464 10.496 16.2816 11.9552 24.6272 5.5296 64.3072-21.76 72.6528-27.7248-2.9184 16.64-7.5008 38.3744-12.5184 61.3888a631.8592 631.8592 0 0 0-22.528 157.312c2.5088 16.1536 13.8752 29.4144 29.2096 34.0992 5.1712 1.4336 10.496 2.1504 15.872 2.1504a185.7792 185.7792 0 0 0 119.424-68.6336c36.352-39.68 39.68-48.6144 32.5888-57.1392-7.1168-8.5248-20.8896-0.4352-27.9808 4.2752z" fill="#FFF2CA" p-id="8346"></path></svg>