<?xml version="1.0" standalone="no"?><!DOCTYPE svg PUBLIC "-//W3C//DTD SVG 1.1//EN" "http://www.w3.org/Graphics/SVG/1.1/DTD/svg11.dtd"><svg t="1606279949256" class="icon" viewBox="0 0 1024 1024" version="1.1" xmlns="http://www.w3.org/2000/svg" p-id="7192" xmlns:xlink="http://www.w3.org/1999/xlink" width="128" height="128"><defs><style type="text/css"></style></defs><path d="M662.7 184.9m-26.5 0a26.5 26.5 0 1 0 53 0 26.5 26.5 0 1 0-53 0Z" fill="#FFCD43" p-id="7193"></path><path d="M753.4 865.8H167.1C110.8 865.8 65 820 65 763.7V360.5c0-56.3 45.8-102.1 102.1-102.1h586.3c56.3 0 102.1 45.8 102.1 102.1v403.2c0.1 56.3-45.7 102.1-102.1 102.1zM167.1 311.3c-27.1 0-49.2 22.1-49.2 49.2v403.2c0 27.1 22.1 49.2 49.2 49.2h586.3c27.1 0 49.2-22.1 49.2-49.2V360.5c0-27.1-22.1-49.2-49.2-49.2H167.1z" p-id="7194"></path><path d="M932.5 676.7c-14.6 0-26.5-11.9-26.5-26.5V260.3c0-27.1-22.1-49.2-49.2-49.2H753.4c-14.6 0-26.5-11.9-26.5-26.5s11.9-26.5 26.5-26.5h103.4c56.3 0 102.1 45.8 102.1 102.1v389.9c0.1 14.7-11.8 26.6-26.4 26.6z" p-id="7195"></path><path d="M106.6 809.1l206.9-374.4 157.2 234.7 108.7-153.8 227 297.3" fill="#FFCD43" p-id="7196"></path><path d="M806.4 839.4c-8 0-15.9-3.6-21.1-10.4L580.2 560.3 503 669.6c-7.4 10.5-19.6 16.7-32.5 16.6-12.9-0.2-24.9-6.7-32.1-17.4L315.6 485.5 129.8 821.9c-7.1 12.8-23.2 17.4-36 10.4-12.8-7.1-17.4-23.2-10.4-36l190.3-344.4c8.1-14.6 22.8-23.7 39.4-24.4 16.6-0.7 32.1 7.1 41.4 21l116.7 174.2L546 517c7.6-10.7 20-17.3 33.1-17.5 13.2-0.2 25.7 5.8 33.7 16.3l214.7 281c8.9 11.6 6.6 28.2-5 37.1-4.8 3.7-10.5 5.5-16.1 5.5zM571.9 211.4H280.6c-14.6 0-26.5-11.9-26.5-26.5s11.9-26.5 26.5-26.5h291.3c14.6 0 26.5 11.9 26.5 26.5 0 14.7-11.9 26.5-26.5 26.5z" p-id="7197"></path></svg>