<?xml version="1.0" standalone="no"?><!DOCTYPE svg PUBLIC "-//W3C//DTD SVG 1.1//EN" "http://www.w3.org/Graphics/SVG/1.1/DTD/svg11.dtd"><svg t="1606826300205" class="icon" viewBox="0 0 1340 1024" version="1.1" xmlns="http://www.w3.org/2000/svg" p-id="8373" data-spm-anchor-id="a313x.7781069.0.i62" xmlns:xlink="http://www.w3.org/1999/xlink" width="167.5" height="128"><defs><style type="text/css"></style></defs><path d="M399.217942 488.89489l-250.080925-250.968786c-8.286705-8.286705-8.286705-21.604624 0-29.891329s21.604624-8.286705 29.595376 0l164.550289 165.43815c18.645087-41.72948 44.984971-81.091329 79.315607-115.421965 52.087861-52.383815 115.421965-86.714451 182.307514-102.695954l-64.813872-65.109827c-8.286705-8.286705-8.286705-21.604624 0-29.891329s21.604624-8.286705 29.595375 0l85.82659 86.122543c0.295954 0 28.115607 27.819653 83.754913 83.163006 8.286705 8.286705 21.604624 8.286705 29.595376 0s8.286705-21.604624 0-29.89133l-54.751445-55.047398c-2.36763-7.694798-1.183815-17.757225 5.327168-24.268209 8.286705-8.286705 21.604624-8.286705 29.595375 0l34.330636 34.330636c67.77341 15.981503 132.291329 50.312139 185.267052 103.287862 85.530636 85.82659 122.524855 202.136416 110.982659 314.30289l124.004624 124.596532c8.286705 8.286705 8.286705 21.604624 0 29.891329s-21.604624 8.286705-29.595375 0l-102.991908-103.287861c-15.981503 67.181503-50.312139 130.515607-102.4 182.899422l-5.919075 5.919075 173.132948 174.020809c8.286705 8.286705 8.286705 21.604624 0 29.89133s-21.604624 8.286705-29.595376 0l-261.623121-262.510983c-8.286705-8.286705-21.604624-8.286705-29.595376 0-8.286705 8.286705-8.286705 21.604624 0 29.891329l126.964162 127.55607c8.286705 8.286705 8.286705 21.604624 0 29.891329s-21.604624 8.286705-29.595376 0l-55.639306-55.93526c-142.353757 65.40578-316.374566 39.36185-433.572254-78.427746-79.315607-79.611561-116.901734-184.379191-113.350289-287.963005l-89.082081-89.673989c-8.286705-8.286705-8.286705-21.604624 0-29.891329s21.604624-8.286705 29.595375 0l118.973411 119.565318c8.286705 8.286705 21.604624 8.286705 29.595375 0 8.582659-8.286705 8.582659-21.604624 0.295954-29.89133z m847.611561 251.26474c7.990751 7.990751 7.990751 21.012717 0 29.003468l-0.887861 0.887862c-7.990751 7.990751-21.012717 7.990751-29.003469 0-7.990751-7.990751-7.990751-21.012717 0-29.003469l0.887862-0.887861c7.990751-7.990751 21.012717-7.990751 29.003468 0z m-1034.654335-379.116763c7.990751 7.990751 7.990751 21.012717 0 29.003468l-0.887862 0.887862c-7.990751 7.990751-21.012717 7.990751-29.003468 0-7.990751-7.990751-7.990751-21.012717 0-29.003469l0.887861-0.887861c8.286705-7.990751 21.012717-7.990751 29.003469 0z m495.426589-282.635838c7.990751 7.990751 7.990751 21.012717 0 29.003468l-0.887861 0.887861c-7.990751 7.990751-21.012717 7.990751-29.003468 0-7.990751-7.990751-7.990751-21.012717 0-29.003468l0.887861-0.887861c7.990751-7.990751 21.012717-7.990751 29.003468 0z" fill="#fcd294" p-id="8374" data-spm-anchor-id="a313x.7781069.0.i58" class=""></path><path d="M1076.383815 710.584971l11.83815-22.196532c1.183815-2.36763 4.143353-3.255491 6.806937-2.071676h0.295953c2.36763 1.183815 3.255491 4.143353 2.071677 6.806936l-11.83815 22.196532 22.196531 11.838151c2.36763 1.183815 3.255491 4.143353 2.071677 6.806936v0.295954c-1.183815 2.36763-4.143353 3.255491-6.806937 2.071676l-22.196532-11.83815-11.83815 22.196531c-1.183815 2.36763-4.143353 3.255491-6.806936 2.071677h-0.295954c-2.36763-1.183815-3.255491-4.143353-2.071676-6.806937l11.83815-22.196531-22.196532-11.838151c-2.36763-1.183815-3.255491-4.143353-2.071676-6.806936v-0.295954c1.183815-2.36763 4.143353-3.255491 6.806936-2.071676l22.196532 11.83815zM205.983815 320.813873l11.83815-22.196532c1.183815-2.36763 4.143353-3.255491 6.806937-2.071676h0.295953c2.36763 1.183815 3.255491 4.143353 2.071677 6.806936l-11.83815 22.196532 22.196531 11.83815c2.36763 1.183815 3.255491 4.143353 2.071677 6.806937v0.295953c-1.183815 2.36763-4.143353 3.255491-6.806937 2.071677l-22.196532-11.838151-11.83815 22.196532c-1.183815 2.36763-4.143353 3.255491-6.806936 2.071677h-0.295954c-2.36763-1.183815-3.255491-4.143353-2.071676-6.806937l11.83815-22.196532-22.196532-11.83815c-2.36763-1.183815-3.255491-4.143353-2.071676-6.806936v-0.295954c1.183815-2.36763 4.143353-3.255491 6.806936-2.071676l22.196532 11.83815zM347.449711 835.181503l-6.510983-23.972254c-0.591908-2.663584 0.887861-5.327168 3.551445-5.919076l0.887862-0.295953c2.663584-0.591908 5.327168 0.887861 5.919075 3.551445l6.510982 23.972254 23.972255-6.510983c2.663584-0.591908 5.327168 0.887861 5.919075 3.551446l0.295954 0.887861c0.591908 2.663584-0.887861 5.327168-3.551445 5.919075l-23.972255 6.510983 6.510983 23.972254c0.591908 2.663584-0.887861 5.327168-3.551445 5.919075l-0.887861 0.295954c-2.663584 0.591908-5.327168-0.887861-5.919076-3.551445l-6.510982-23.972255-23.972255 6.510983c-2.663584 0.591908-5.327168-0.887861-5.919075-3.551445l-0.295953-0.887861c-0.591908-2.663584 0.887861-5.327168 3.551445-5.919075l23.972254-6.510983zM121.636994 627.126012c13.021965 0 23.380347-10.358382 23.380347-23.380347s-10.358382-23.380347-23.380347-23.380347-23.380347 10.358382-23.380347 23.380347 10.358382 23.380347 23.380347 23.380347z m0 11.83815c-19.532948 0-35.218497-15.685549-35.218497-35.218497s15.685549-35.218497 35.218497-35.218497S156.855491 584.212717 156.855491 603.745665s-15.685549 35.218497-35.218497 35.218497zM1208.083237 452.809249c13.021965 0 23.380347-11.246243 23.380347-25.15607s-10.358382-25.156069-23.380347-25.156069-23.380347 11.246243-23.380347 25.156069 10.654335 25.156069 23.380347 25.15607z m0 12.726011c-19.532948 0-35.218497-16.869364-35.218497-37.882081 0-21.012717 15.685549-37.882081 35.218497-37.882081 19.532948 0 35.218497 16.869364 35.218497 37.882081 0 21.012717-15.685549 37.882081-35.218497 37.882081zM968.952601 120.453179v30.187283h29.89133V120.453179h-29.89133z m-12.134104-12.134104h54.159538v54.159538h-54.159538V108.319075z" fill="#444444" p-id="8375" data-spm-anchor-id="a313x.7781069.0.i64" class="selected"></path><path d="M554.321387 248.89711h318.446243c10.654335 0 19.236994 8.582659 19.236994 19.236994v476.189595c0 10.654335-8.582659 19.236994-19.236994 19.236995H554.321387c-10.654335 0-19.236994-8.582659-19.236994-19.236995V268.134104c0-10.654335 8.582659-19.236994 19.236994-19.236994z" fill="#fa820b" p-id="8376" data-spm-anchor-id="a313x.7781069.0.i61" class=""></path><path d="M865.072832 498.682081c0-2.959538 2.36763-5.623121 5.327168-5.623121s5.327168 2.36763 5.327168 5.623121v86.418497c0 2.959538-2.36763 5.623121-5.327168 5.623121s-5.327168-2.36763-5.327168-5.623121v-86.418497z m0 121.045087c0-3.255491 2.36763-5.919075 5.327168-5.919076s5.327168 2.663584 5.327168 5.919076v23.084393c0 3.255491-2.36763 5.919075-5.327168 5.919075s-5.327168-2.663584-5.327168-5.919075v-23.084393z m1.183815 40.545664c0-3.255491 2.071676-5.623121 4.735261-5.623121 2.663584 0 4.73526 2.663584 4.73526 5.623121v85.82659c0 12.430058-8.582659 22.492486-19.236995 22.492486H527.389595c-10.654335 0-19.236994-10.062428-19.236994-22.492486V271.685549c0-12.430058 8.582659-22.492486 19.236994-22.492485h328.804625c10.654335 0 19.236994 10.062428 19.236994 22.492485v177.868208c0 3.255491-2.071676 5.623121-4.73526 5.623122-2.663584 0-4.73526-2.663584-4.73526-5.623122V271.685549c0-6.215029-4.439306-11.246243-9.766474-11.246243H527.389595c-5.327168 0-9.766474 5.031214-9.766474 11.246243v474.413873c0 6.215029 4.439306 11.246243 9.766474 11.246243h328.804625c5.327168 0 9.766474-5.031214 9.766474-11.246243v-85.82659z" fill="#444444" p-id="8377"></path><path d="M822.455491 561.424277l95.001156-164.254335-5.919075-3.551445-94.705202 164.550289 5.623121 3.255491z m-7.990751 13.613873l-5.623122-3.255491-2.959537 5.327168-1.183815 8.582659 6.806936-5.327168 2.959538-5.327168z m-27.5237 41.137573l5.623122-42.321388 115.717919-200.06474 28.115607 16.277457-115.717919 200.06474-33.738729 26.043931zM1333.271676 884.013873h-83.754913c5.623121-6.215029 9.174566-14.797688 9.174566-23.972255 0-19.828902-16.277457-35.810405-36.106358-35.810404h-1.479769c-6.510983-20.716763-26.043931-35.810405-49.128323-35.810405-27.227746 0-49.720231 21.308671-51.2 47.944509h-0.887862c-20.124855 0-36.106358 15.981503-36.106358 35.810405 0 6.215029 1.775723 12.430058 4.73526 17.461271 4.143353 3.847399 9.766474 6.510983 15.685549 6.510983h229.068208c3.255491 0 5.919075-2.663584 5.919075-5.919075s-2.36763-6.215029-5.919075-6.215029z m-229.068208 1.183815c-2.663584 0-5.031214-0.887861-7.10289-2.36763-1.479769-3.255491-2.36763-6.806936-2.36763-10.654335 0-13.909827 11.246243-25.156069 25.452023-25.15607h0.591908l10.358381 0.295954 0.591908-10.358382c1.183815-21.012717 18.94104-37.586127 40.545664-37.586127 18.053179 0 33.442775 11.542197 38.769943 28.411561l2.36763 7.990751 8.286705-0.295953h0.887861c13.909827 0 25.452023 11.246243 25.452023 25.156069 0 10.950289-7.398844 20.716763-17.757225 23.972254h-1.479769c-1.183815 0-2.36763 0.295954-3.551445 1.183815h-121.045087zM25.452023 72.212717H5.919075c-3.255491 0-5.919075 2.663584-5.919075 5.919075s2.663584 5.919075 5.919075 5.919075h19.532948c3.255491 0 5.919075-2.663584 5.919075-5.919075 0.295954-3.255491-2.36763-5.919075-5.919075-5.919075zM330.284393 53.56763c0-26.635838-20.420809-48.240462-42.617341-48.240462-21.012717 0-37.882081 12.134104-44.984971 29.299422C228.180347 13.613873 204.8 0 179.347977 0 135.250867 0 100.624277 31.371098 95.001156 72.212717H48.536416c-3.255491 0-5.919075 2.663584-5.919075 5.919075v0.295954c0 3.255491 2.663584 5.919075 5.919075 5.919075h155.079769c0.887861 4.143353 2.071676 7.990751 4.143353 11.542196H129.627746c-3.255491 0-5.919075 2.663584-5.919075 5.919075s2.663584 5.919075 5.919075 5.919076h225.220809c3.551445 0 6.806936-1.479769 9.174566-4.143353 1.775723-4.143353 2.663584-8.878613 2.663584-13.909827 0-20.124855-16.277457-36.106358-36.402312-36.106358z m-196.513295 18.645087h-26.635838C112.758382 37.586127 142.353757 12.134104 179.347977 12.134104c20.124855 0 39.657803 10.654335 52.087861 27.523699-15.685549 5.623121-28.411561 17.461272-34.922543 32.554914H133.771098z m219.893642 23.380347H223.149133c-5.031214-4.439306-8.286705-10.950289-8.286705-18.05318 0-13.317919 10.950289-23.972254 24.268208-23.972254h0.887861l10.062428 0.295954 2.36763-9.47052c3.847399-15.981503 17.757225-26.931792 35.218497-26.931792 15.685549 0 30.483237 16.277457 30.483237 36.106358v12.134104h12.134104c13.317919 0 24.268208 10.654335 24.268208 23.972254 0 2.071676-0.295954 4.143353-0.887861 5.919076z" fill="#444444" p-id="8378" data-spm-anchor-id="a313x.7781069.0.i63" class="selected"></path><path d="M589.146266 389.919075c-2.959538 0-5.327168-2.36763-5.327168-5.327167s2.36763-5.623121 5.327168-5.623122h118.97341c2.959538 0 5.327168 2.36763 5.327168 5.327168s-2.36763 5.327168-5.327168 5.327167h-118.97341zM590.330081 445.262428c-2.959538 0-5.327168-2.36763-5.327168-5.327168s2.36763-5.327168 5.327168-5.327168h151.23237c2.959538 0 5.327168 2.36763 5.327167 5.327168s-2.36763 5.327168-5.327167 5.327168h-151.23237zM590.330081 500.901734c-2.959538 0-5.327168-2.36763-5.327168-5.327168s2.36763-5.623121 5.327168-5.623121h64.813873c2.959538 0 5.327168 2.36763 5.327167 5.327168s-2.36763 5.327168-5.327167 5.327167h-64.813873zM589.146266 556.245087c-2.959538 0-5.327168-2.36763-5.327168-5.327168s2.36763-5.327168 5.327168-5.327168h124.300578c2.959538 0 5.327168 2.36763 5.327168 5.327168s-2.36763 5.327168-5.327168 5.327168h-124.300578zM589.146266 611.884393c-2.959538 0-5.327168-2.36763-5.327168-5.327168s2.36763-5.327168 5.327168-5.327167h173.132948c2.959538 0 5.327168 2.36763 5.327168 5.327167s-2.36763 5.327168-5.327168 5.327168h-173.132948z" fill="#444444" p-id="8379" data-spm-anchor-id="a313x.7781069.0.i60" class=""></path></svg>