<?xml version="1.0" standalone="no"?><!DOCTYPE svg PUBLIC "-//W3C//DTD SVG 1.1//EN" "http://www.w3.org/Graphics/SVG/1.1/DTD/svg11.dtd"><svg t="1606746580867" class="icon" viewBox="0 0 1024 1024" version="1.1" xmlns="http://www.w3.org/2000/svg" p-id="5241" xmlns:xlink="http://www.w3.org/1999/xlink" width="128" height="128"><defs><style type="text/css"></style></defs><path d="M94.117585 905.410933c0 42.367961 77.138753 81.517102 202.352755 102.701082 125.214003 21.183981 279.491508 21.183981 404.70551 0 125.214003-21.183981 202.352755-60.333121 202.352756-102.701082 0-65.494528-181.195128-118.588126-404.705511-118.588127S94.117585 839.916404 94.117585 905.410933zM26.352941 856.469801c0 4.705878 6.456465 9.057874 16.941161 11.410813s23.397626 2.352939 33.882322 0 16.941161-6.70117 16.941161-11.410813c0-7.27717-15.171751-13.176458-33.882322-13.176458s-33.882322 5.899289-33.882322 13.176458zM911.05801 931.763849c0 6.053641 8.248463 11.644225 21.647039 14.671046 13.394811 3.026821 29.899267 3.026821 43.294078 0 13.398576-3.026821 21.647039-8.621169 21.647039-14.671046 0-6.053641-8.248463-11.644225-21.647039-14.671045-13.394811-3.026821-29.899267-3.026821-43.294078 0-13.398576 3.026821-21.647039 8.621169-21.647039 14.671045z" fill="#D5F1F1" opacity=".905" p-id="5242"></path><path d="M449.753964 227.997908C317.131027 220.957915 214.588062 172.799841 214.588062 114.465777 214.588062 50.872424 335.077363 0 483.764285 0S752.940509 50.872424 752.940509 114.465777c0 58.503476-103.310964 106.830961-236.619077 113.614955l-18.115748 33.916204A17.106808 17.106808 0 0 1 483.07911 271.058574a17.106808 17.106808 0 0 1-15.12281-9.061638l-18.202336-33.999028zM463.058422 329.411462a20.705863 20.705863 0 1 0 41.411727 0 20.705863 20.705863 0 0 0-41.411727 0z" fill="#FDF1B9" opacity=".905" p-id="5243"></path><path d="M466.823125 393.411403a16.937396 16.937396 0 0 0 25.411741 14.671045 16.937396 16.937396 0 0 0 0-29.34209A16.941161 16.941161 0 0 0 466.823125 393.411403z" fill="#DFF1C3" opacity=".905" p-id="5244"></path><path d="M470.587827 449.881939a13.176458 13.176458 0 1 0 26.352917 0 13.176458 13.176458 0 0 0-26.352917 0z" fill="#BEEBE6" opacity=".905" p-id="5245"></path><path d="M173.176336 538.962328v360.319669a25.566094 25.566094 0 0 0 19.941628 24.971271L500.705446 993.881439V580.976407c-218.35274-31.8155-327.529111-45.820193-327.52911-42.014079z" fill="#8CE0D5" opacity=".905" p-id="5246"></path><path d="M824.469855 538.962328v360.338492a25.562329 25.562329 0 0 1-19.858806 24.884684L500.434388 993.881439 496.940744 580.968878c218.35274-31.811735 327.529111-45.812664 327.529111-42.00655z" fill="#7DD8D0" opacity=".905" p-id="5247"></path><path d="M86.58818 673.399852L173.522688 530.823042 496.940744 575.171236 420.927637 745.41108z" fill="#D9F4EF" opacity=".905" p-id="5248"></path><path d="M496.940744 575.111001L576.63573 745.41108 907.293308 667.16174 827.259499 530.823042z" fill="#C4F6ED" opacity=".905" p-id="5249"></path><path d="M455.529017 575.999471v-79.058751l-274.823277 32.075264L455.529017 575.999471z" fill="#86D9D6" opacity=".905" p-id="5250"></path><path d="M487.348282 575.999471L828.234557 525.996693 444.23491 493.176017v79.405104l43.113372 3.41835z" fill="#97E1D9" opacity=".905" p-id="5251"></path><path d="M393.558251 135.529287a17.087984 17.087984 0 0 1-15.785398-10.458343 16.835749 16.835749 0 0 1 3.700703-18.462101 17.193396 17.193396 0 0 1 18.620218-3.670585 16.941161 16.941161 0 0 1 10.548696 15.649868c0 9.355286-7.649875 16.941161-17.084219 16.941161z m93.970737 0a17.087984 17.087984 0 0 1-15.785397-10.458343 16.835749 16.835749 0 0 1 3.704467-18.462101 17.193396 17.193396 0 0 1 18.620218-3.670585 16.941161 16.941161 0 0 1 10.548696 15.649868c0 9.355286-7.649875 16.941161-17.087984 16.941161z m93.974502 0a17.087984 17.087984 0 0 1-15.785398-10.458343 16.835749 16.835749 0 0 1 3.700703-18.462101 17.193396 17.193396 0 0 1 18.620218-3.670585A16.941161 16.941161 0 0 1 598.587709 118.588126c0 9.355286-7.649875 16.941161-17.084219 16.941161z" fill="#FCDC8B" opacity=".905" p-id="5252"></path></svg>