<?xml version="1.0" standalone="no"?><!DOCTYPE svg PUBLIC "-//W3C//DTD SVG 1.1//EN" "http://www.w3.org/Graphics/SVG/1.1/DTD/svg11.dtd"><svg t="1606029928604" class="icon" viewBox="0 0 1024 1024" version="1.1" xmlns="http://www.w3.org/2000/svg" p-id="6562" xmlns:xlink="http://www.w3.org/1999/xlink" width="200" height="200"><defs><style type="text/css"></style></defs><path d="M153.6 930.56a40.96 40.96 0 0 1-21.12-6.4 38.4 38.4 0 0 1-17.28-35.84l16-177.28a384 384 0 0 1-64-209.92c0-224.64 199.68-407.68 448-407.68s448 183.04 448 407.68-206.08 407.04-451.2 407.04a400.64 400.64 0 0 1-212.48-51.2l-128 69.12a46.08 46.08 0 0 1-17.92 4.48z m146.56-156.16a39.68 39.68 0 0 1 20.48 5.76A320 320 0 0 0 512 832c202.88 0 368-147.84 368-330.24S714.88 170.24 512 170.24 144 320 144 501.12a304 304 0 0 0 58.24 177.28 37.12 37.12 0 0 1 6.4 25.6l-10.88 120.32 84.48-45.44a35.2 35.2 0 0 1 17.92-4.48z" fill="#2c2c2c" p-id="6563" data-spm-anchor-id="a313x.7781069.0.i16" class="selected"></path><path d="M375.68 501.12A51.84 51.84 0 1 1 323.84 448a51.84 51.84 0 0 1 51.84 51.2M563.84 501.12A51.84 51.84 0 1 1 512 448a51.84 51.84 0 0 1 51.84 51.2M751.36 501.12a51.84 51.84 0 1 1-51.2-51.2 51.2 51.2 0 0 1 51.2 51.2" fill="#2c2c2c" p-id="6564" data-spm-anchor-id="a313x.7781069.0.i17" class="selected"></path></svg>