<?xml version="1.0" standalone="no"?><!DOCTYPE svg PUBLIC "-//W3C//DTD SVG 1.1//EN" "http://www.w3.org/Graphics/SVG/1.1/DTD/svg11.dtd"><svg t="1607341291150" class="icon" viewBox="0 0 1024 1024" version="1.1" xmlns="http://www.w3.org/2000/svg" p-id="5559" xmlns:xlink="http://www.w3.org/1999/xlink" width="128" height="128"><defs><style type="text/css"></style></defs><path d="M512 0c259.2 0 469.333333 210.133333 469.333333 469.333333 0 226.645333-160.682667 415.786667-374.314666 459.690667L512 1024l-94.976-94.933333C203.349333 885.12 42.666667 696.021333 42.666667 469.333333 42.666667 210.133333 252.8 0 512 0z" fill="#bd8cbb" p-id="5560" data-spm-anchor-id="a313x.7781069.0.i2" class="selected"></path><path d="M554.666667 213.333333v121.856L768 426.666667v298.666666l-213.333333-0.042666V725.333333H256V213.333333h298.666667z m0 214.741334v211.882666L682.666667 640v-157.056l-128-54.869333zM469.290667 512H341.333333v85.333333h127.957334v-85.333333z m0-170.666667H341.333333v85.333334h127.957334V341.333333z" fill="#FFFFFF" p-id="5561"></path></svg>