<?xml version="1.0" standalone="no"?><!DOCTYPE svg PUBLIC "-//W3C//DTD SVG 1.1//EN" "http://www.w3.org/Graphics/SVG/1.1/DTD/svg11.dtd"><svg t="1608468952637" class="icon" viewBox="0 0 1024 1024" version="1.1" xmlns="http://www.w3.org/2000/svg" p-id="9930" xmlns:xlink="http://www.w3.org/1999/xlink" width="128" height="128"><defs><style type="text/css"></style></defs><path d="M801.635081 222.36172a204.8 204.8 0 0 1 5.334036 284.103814L801.635081 511.992658l-96.543646 96.543646a34.133333 34.133333 0 0 1-50.926773-45.27897L656.819612 560.264481 753.363258 463.720835a136.533333 136.533333 0 0 0-188.13943-197.793795L560.275966 270.633543l-96.543646 96.543646a34.133333 34.133333 0 0 1-50.926773-45.27897L415.460497 318.905366 512.004143 222.36172a204.8 204.8 0 0 1 289.630938 0z" fill="#8a8a8a" p-id="9931" data-spm-anchor-id="a313x.7781069.0.i15" class="selected"></path><path d="M608.547789 367.177189m24.135911 24.135911l0 0q24.135911 24.135911 0 48.271823l-193.087291 193.087292q-24.135911 24.135911-48.271823 0l0 0q-24.135911-24.135911 0-48.271823l193.087292-193.087292q24.135911-24.135911 48.271822 0Z" fill="#8a8a8a" p-id="9932" data-spm-anchor-id="a313x.7781069.0.i17" class="selected"></path><path d="M608.547789 656.808127a34.133333 34.133333 0 0 1 2.65495 45.27897L608.547789 705.07995l-96.543646 96.543645a204.8 204.8 0 0 1-294.964974-284.103813L222.373206 511.992658l96.543645-96.543646a34.133333 34.133333 0 0 1 50.926774 45.27897L367.188674 463.720835l-96.543645 96.543646a136.533333 136.533333 0 0 0 188.139429 197.793794L463.73232 753.351772l96.543646-96.543645a34.133333 34.133333 0 0 1 48.271823 0z" fill="#8a8a8a" p-id="9933" data-spm-anchor-id="a313x.7781069.0.i16" class="selected"></path></svg>