<?xml version="1.0" standalone="no"?><!DOCTYPE svg PUBLIC "-//W3C//DTD SVG 1.1//EN" "http://www.w3.org/Graphics/SVG/1.1/DTD/svg11.dtd"><svg t="1606981944968" class="icon" viewBox="0 0 1024 1024" version="1.1" xmlns="http://www.w3.org/2000/svg" p-id="15449" data-spm-anchor-id="a313x.7781069.0.i0" xmlns:xlink="http://www.w3.org/1999/xlink" width="128" height="128"><defs><style type="text/css"></style></defs><path d="M177.3056 283.5968s-89.9584 47.104 2.1504 156.2624c38.2976 45.3632 35.328 112.5888-7.3216 153.9072-0.7168 0.7168-1.4848 1.4336-2.2528 2.1504-76.2368 72.192 92.2624 284.8256 200.5504 185.6512s154.1632-14.336 217.7536-10.2912c63.5904 3.9936 285.952-40.704 310.016-184.5248 12.5952-77.9776-47.2576-44.9536-81.9712-57.856-29.2352-10.9056-52.1728-62.464-15.4624-148.992s-122.2656-15.0528-205.1584-8.0384c-142.08 12.032-295.6288-144.4352-418.304-88.2688z" fill="#fcd294" p-id="15450" data-spm-anchor-id="a313x.7781069.0.i2" class="selected"></path><path d="M208.7936 372.4288m-19.5072 0a19.5072 19.5072 0 1 0 39.0144 0 19.5072 19.5072 0 1 0-39.0144 0Z" fill="#FF6F6F" p-id="15451"></path><path d="M125.5936 447.8976m-14.7456 0a14.7456 14.7456 0 1 0 29.4912 0 14.7456 14.7456 0 1 0-29.4912 0Z" fill="#EBE9F7" p-id="15452"></path><path d="M169.984 489.472m-8.1408 0a8.1408 8.1408 0 1 0 16.2816 0 8.1408 8.1408 0 1 0-16.2816 0Z" fill="#ECE9F9" p-id="15453"></path><path d="M438.016 307.6608m-12.032 0a12.032 12.032 0 1 0 24.064 0 12.032 12.032 0 1 0-24.064 0Z" fill="#E0DAFE" p-id="15454"></path><path d="M481.28 338.3296m-5.4272 0a5.4272 5.4272 0 1 0 10.8544 0 5.4272 5.4272 0 1 0-10.8544 0Z" fill="#7953E7" p-id="15455"></path><path d="M816.8448 365.568m-26.368 0a26.368 26.368 0 1 0 52.736 0 26.368 26.368 0 1 0-52.736 0Z" fill="#FF6F6F" p-id="15456"></path><path d="M853.248 436.8896m-15.7696 0a15.7696 15.7696 0 1 0 31.5392 0 15.7696 15.7696 0 1 0-31.5392 0Z" fill="#FFC0C0" p-id="15457"></path><path d="M373.5552 735.4368m-12.9024 0a12.9024 12.9024 0 1 0 25.8048 0 12.9024 12.9024 0 1 0-25.8048 0Z" fill="#E5DCFF" p-id="15458"></path><path d="M418.56 703.0784m-7.4752 0a7.4752 7.4752 0 1 0 14.9504 0 7.4752 7.4752 0 1 0-14.9504 0Z" fill="#EBE9F7" p-id="15459"></path><path d="M397.312 577.024s-18.5344-8.0384-22.1184 7.2704 2.1504 23.5008 8.2432 25.8048c0 0-10.496 14.3872-2.5088 26.88 8.0384 12.4928 12.6464 15.0016 20.4288 11.3664L397.312 577.024z" fill="#F7D490" p-id="15460"></path><path d="M391.168 528.896c-1.4848-0.1536-2.7648 1.024-2.9696 2.5088-0.3584 2.8672-0.9216 8.7552 0.2048 10.8032 1.536 2.7648 4.4544 5.3248 5.888 2.7648 1.4336-2.5088-2.4576-7.1168-0.6656-9.728 1.3824-2.048 0.256-6.0928-2.4576-6.3488z" fill="#F0BAB8" p-id="15461"></path><path d="M342.528 609.2288s-3.6864-5.4784-9.1136-2.6112 2.4064 10.2912 5.4784 12.032c3.072 1.7408-4.864 4.9664-1.8432 8.3968s9.3184 6.0928 11.9808 5.7344c2.6624-0.3584-2.5088 8.6016 2.0992 11.264s10.9056-0.5632 13.0048 2.5088c2.0992 3.072-4.1984 6.8608-2.5088 8.6016s12.8 1.8944 15.2576 3.072-13.0048 7.8336-11.264 11.0592c1.7408 3.2256 15.5648 8.5504 28.9792 5.5296 13.4144-3.0208 3.2256-32.0512 0-32.256-3.2256-0.2048-10.0864-3.0208-8.1408-5.632s-1.3312-6.0416-6.0928-1.6384c-4.7616 4.4032-4.1984-16.2304-6.7584-19.8656-2.56-3.6352-7.936 5.5296-8.704 7.6288s-5.1712 0.3072-4.1984-6.656c0.9216-6.912-9.0112-21.1456-18.176-7.168z" fill="#3562D3" p-id="15462"></path><path d="M775.6288 686.4384H405.2992c-7.68 0-13.9264-6.2464-13.9264-13.9264V427.008c0-7.68 6.2464-13.9264 13.9264-13.9264h370.3296c7.68 0 13.9264 6.2464 13.9264 13.9264v245.504c0 7.7312-6.2464 13.9264-13.9264 13.9264z" fill="#FFD2D2" p-id="15463"></path><path d="M770.6112 678.4512H412.8256c-6.3488 0-11.4688-5.12-11.4688-11.4688V432.5888c0-6.3488 5.12-11.4688 11.4688-11.4688H770.56c6.3488 0 11.4688 5.12 11.4688 11.4688v234.3424c0.0512 6.3488-5.12 11.52-11.4176 11.52z" fill="#FEFEFC" p-id="15464"></path><path d="M758.1184 663.552H424.5504c-5.5296 0-9.984-4.4544-9.984-9.984v-210.432c0-5.5296 4.4544-9.984 9.984-9.984h333.6192c5.5296 0 9.984 4.4544 9.984 9.984v210.3808c-0.0512 5.5296-4.5056 10.0352-10.0352 10.0352z" fill="#FFE9E9" p-id="15465"></path><path d="M730.2656 481.28H447.7952c-0.3072 0-0.6144-0.256-0.6144-0.6144v-17.4592c0-0.3072 0.256-0.6144 0.6144-0.6144h282.4704c0.3072 0 0.6144 0.256 0.6144 0.6144v17.4592c0 0.3584-0.256 0.6144-0.6144 0.6144z" fill="#FF8D8D" p-id="15466"></path><path d="M623.6672 563.5584h-173.568c-1.792 0-3.1744-1.4336-3.1744-3.1744v-55.808c0-1.792 1.4336-3.1744 3.1744-3.1744H623.616c1.792 0 3.1744 1.4336 3.1744 3.1744v55.7568c0.0512 1.792-1.3824 3.2256-3.1232 3.2256zM727.6544 566.1184h-79.5648c-1.792 0-3.1744-1.4336-3.1744-3.1744v-58.368c0-1.792 1.4336-3.1744 3.1744-3.1744h79.5648c1.792 0 3.1744 1.4336 3.1744 3.1744v58.368c0.0512 1.7408-1.3824 3.1744-3.1744 3.1744zM623.6672 640.3072h-173.568c-1.792 0-3.1744-1.4336-3.1744-3.1744v-55.7568c0-1.792 1.4336-3.1744 3.1744-3.1744H623.616c1.792 0 3.1744 1.4336 3.1744 3.1744v55.7568c0.0512 1.7408-1.3824 3.1744-3.1232 3.1744z" fill="#FEFFFF" p-id="15467"></path><path d="M541.696 522.5472H463.0016c-1.792 0-3.1744-1.4336-3.1744-3.1744v-0.768c0-1.792 1.4336-3.1744 3.1744-3.1744H541.696c1.792 0 3.1744 1.4336 3.1744 3.1744v0.768c0.0512 1.7408-1.3824 3.1744-3.1744 3.1744zM705.3312 522.5472h-44.7488c-1.792 0-3.1744-1.4336-3.1744-3.1744v-0.768c0-1.792 1.4336-3.1744 3.1744-3.1744h44.7488c1.792 0 3.1744 1.4336 3.1744 3.1744v0.768c0 1.7408-1.4336 3.1744-3.1744 3.1744zM698.4704 539.3408h-37.888c-1.792 0-3.1744-1.4336-3.1744-3.1744v-0.768c0-1.792 1.4336-3.1744 3.1744-3.1744h37.888c1.792 0 3.1744 1.4336 3.1744 3.1744v0.768c0 1.7408-1.4336 3.1744-3.1744 3.1744zM684.6976 553.3696h-24.1152c-1.792 0-3.1744-1.4336-3.1744-3.1744v-0.768c0-1.792 1.4336-3.1744 3.1744-3.1744h24.1152c1.792 0 3.1744 1.4336 3.1744 3.1744v0.768c0 1.7408-1.4336 3.1744-3.1744 3.1744zM504.1664 600.7808h-41.1648c-1.792 0-3.1744-1.4336-3.1744-3.1744v-0.768c0-1.792 1.4336-3.1744 3.1744-3.1744h41.1648c1.792 0 3.1744 1.4336 3.1744 3.1744v0.768c0.0512 1.7408-1.3824 3.1744-3.1744 3.1744zM590.4384 616.3968H463.0016c-1.792 0-3.1744-1.4336-3.1744-3.1744v-0.768c0-1.792 1.4336-3.1744 3.1744-3.1744h127.3856c1.792 0 3.1744 1.4336 3.1744 3.1744v0.768c0.0512 1.7408-1.3824 3.1744-3.1232 3.1744zM536.576 632.0128H463.0016c-1.792 0-3.1744-1.4336-3.1744-3.1744v-0.768c0-1.792 1.4336-3.1744 3.1744-3.1744H536.576c1.792 0 3.1744 1.4336 3.1744 3.1744v0.768c0 1.7408-1.4336 3.1744-3.1744 3.1744zM566.0672 539.3408H463.0016c-1.792 0-3.1744-1.4336-3.1744-3.1744v-0.768c0-1.792 1.4336-3.1744 3.1744-3.1744h103.0656c1.792 0 3.1744 1.4336 3.1744 3.1744v0.768c0.0512 1.7408-1.3824 3.1744-3.1744 3.1744zM611.6352 553.3696H463.0016c-1.792 0-3.1744-1.4336-3.1744-3.1744v-0.768c0-1.792 1.4336-3.1744 3.1744-3.1744h148.6336c1.792 0 3.1744 1.4336 3.1744 3.1744v0.768c0 1.7408-1.4336 3.1744-3.1744 3.1744z" fill="#fcd294" p-id="15468" data-spm-anchor-id="a313x.7781069.0.i1" class="selected"></path><path d="M176.4352 678.2464s9.2672-7.8336 14.8992-8.704c5.632-0.8704-3.9936 6.6048-5.1712 7.168s-9.1648 6.9632-9.728 5.9392c-0.5632-1.0752-2.4576-3.7376 0-4.4032z" fill="#FCB695" p-id="15469"></path><path d="M232.1408 601.4976s-13.0048 14.336-15.0016 39.9872c-0.1536 1.8944-0.768 3.7376-1.8944 5.2736-3.8912 5.4272-14.2848 18.0224-29.952 22.9376 0 0 6.8608 0.3072 4.1472 7.7312 0 0 32.4608-12.9024 36.4032-16.4864 4.1984-3.84 16.3328-14.4896 15.9232-27.8016-0.4096-13.312-9.6256-31.6416-9.6256-31.6416z" fill="#393E67" p-id="15470"></path><path d="M301.824 679.1168v12.1344h6.144l-0.512-13.0048z" fill="#FCB695" p-id="15471"></path><path d="M231.7312 599.6544s-16.0256 33.792 12.3392 34.2528c5.4272 0 15.4624-2.56 23.1936 2.56 7.7312 5.1712 27.3408 25.1904 31.7952 44.3904h9.728s3.328-28.3648-40.6016-66.6112c-21.4016-17.92-20.992-29.2352-36.4544-14.592z" fill="#504F7D" p-id="15472"></path><path d="M389.1712 541.5936c-0.4608-1.2288-1.8944-1.8432-3.1232-1.28-8.3968 3.84-41.984 18.9952-52.3264 19.3024-11.6224 0.3584-76.1856-18.176-103.168 39.9872-1.0752 2.304-0.4608 5.0688 1.4848 6.7072 4.8128 4.096 16.7936 10.752 32.8192 10.496 3.6864-0.0512 7.2192-1.4336 9.984-3.8912 5.1712-4.608 14.336-12.1856 18.3808-12.0832 13.1072 0.3584 27.5456-3.4304 27.9552-16.0768 0 0 12.5952 9.9328 19.8656 10.7008 6.4512 0.6656 40.1408-0.3584 47.5136-0.5632 0.8192 0 1.4336-0.6656 1.4336-1.4848v-1.2288c0-0.8192-0.6656-1.4848-1.536-1.4848-5.4784 0.1536-24.3712 0.5632-32.1536-1.7408-9.1648-2.6624-26.624-16.0256-22.3744-19.5072 3.2768-2.6624 9.216-3.9424 16.2304-5.2736 4.9664-0.9216 9.7792-2.6112 14.2848-4.9152 9.8816-5.0688 25.344-13.1072 25.5488-13.6192 0.1024-0.4096-0.1536-2.3552-0.8192-4.0448z" fill="#FF6F6F" p-id="15473"></path><path d="M177.7664 675.6864s-7.8336 2.56-5.1712 10.1376c1.3312 2.8672 1.1264 5.9392 3.7376 6.0928s10.1376 0.3584 10.1376 0.3584 3.4816-4.0448-4.7616-4.096c-8.2432-0.0512-3.9424-5.3248-2.048-6.2464 1.8432-0.9216-1.8944-6.2464-1.8944-6.2464zM299.6224 688.9472v7.8336l17.9712-0.8704s0.2048-8.192-10.7008-8.8576c-7.2704 0-7.2704 1.8944-7.2704 1.8944z" fill="#020624" p-id="15474"></path><path d="M321.2288 553.4208s5.632 12.8 20.224 7.0656 6.6048-21.6576 4.608-22.0672c-1.9968-0.3584-14.0288 1.2288-15.9744 3.5328-1.8944 2.304-8.8576 11.4688-8.8576 11.4688z" fill="#FCB695" p-id="15475"></path><path d="M322.816 542.9248c-0.5632 1.536-2.048 2.7648-3.9936 3.2768-2.5088 0.6656-6.2976 2.0992-5.2736 4.4032 1.536 3.328 7.8336 3.8912 11.0592 2.1504 3.2256-1.7408 1.4848-8.448 3.6352-7.7312 2.1504 0.768 6.3488 2.048 9.8304-2.7136 3.4304-4.7616 9.5232 0.768 11.0592-0.8192s2.3552-13.7728-7.1168-14.4896c-4.0448-0.3584-5.1712 8.2944-3.6352 9.216 1.536 0.9216-13.9264-1.024-14.7968 3.9936-0.256 1.0752-0.512 1.9456-0.768 2.7136z" fill="#0D274F" p-id="15476"></path><path d="M397.2608 591.9744c-0.4096-4.352-6.1952-5.888-8.6016-2.2016-0.512 0.8192-0.7168 1.7408-0.1024 2.7648 1.8432 3.1744 6.6048 3.072 7.936 2.3552 0.5632-0.3072 0.9216-1.536 0.768-2.9184z" fill="#F1BCB9" p-id="15477"></path><path d="M719.8208 622.5408v-7.4752s-3.7376 3.4304-5.7344 0c-1.9968-3.4304-3.1744-12.5952-1.4336-13.056 1.7408-0.4096-0.5632-8.6016 3.1744-7.3216l3.2768-2.56 13.312 12.5952v17.7664h-12.5952z" fill="#FCAFA3" p-id="15478"></path><path d="M717.9776 579.84s-9.9328 5.0688-2.048 11.1104c7.8848 6.0928 10.752 5.0688 8.192 13.0048-2.6112 7.9872-0.4608 8.1408 4.4544 7.8336s9.5232-3.1232 10.3424-7.5264c0.8192-4.4032 2.6624-16.5888-0.6656-16.8448s-6.6048 1.536-8.2432 0-7.0144-8.9088-12.032-7.5776z" fill="#09253D" p-id="15479"></path><path d="M665.1392 623.9232l-2.9184-4.096s0.2048-5.5296-4.8128-6.2976-6.0416 4.9664-0.3584 7.68c5.6832 2.7136 6.1952 5.888 6.1952 5.888l1.8944-3.1744zM740.1472 719.104v10.5984h2.7648v-11.3152zM685.6192 722.688h3.584v7.0144h-3.584z" fill="#FCAFA3" p-id="15480"></path><path d="M709.2224 680.2944l-10.8544-5.376c-1.9968-0.9728-3.84-2.2528-5.376-3.84-1.5872-1.6896-4.4032-3.5328-7.9872-1.6384-5.5296 2.9184-5.7344 9.0624-3.8912 18.1248 0.1024 0.6144 0.2048 1.2288 0.256 1.8432l1.9456 34.8672 8.1408 0.7168-1.5872-29.3888h3.9936s13.3632 24.3712 28.2112 25.344c14.8992 1.024 29.952 3.0208 31.0784-7.8848 1.1264-10.9056 1.28-22.0672-8.8576-25.344-10.1376-3.2768-35.072-7.424-35.072-7.424z" fill="#34325C" p-id="15481"></path><path d="M665.088 623.3088l-3.4304 3.5328c-0.4608 0.512-0.5632 1.28-0.1536 1.8432 3.5328 4.864 19.5072 26.5728 22.9376 27.8528 3.8912 1.4336 8.2944 2.7136 12.9024-4.3008s8.448-7.0144 9.0112-2.1504c0.512 4.2496 0.6656 37.3248 0.7168 46.0288 0 1.28 0.8192 2.4576 1.9968 2.9184 7.5264 2.9184 33.9968 11.7248 38.5536-7.2704 1.1264-5.3248-8.2944-21.0432-2.1504-35.84s5.5808-28.2112-6.6048-34.4064l-26.368-0.8704s-16.7424 14.7456-20.224 23.1936c-0.7168 2.7136-4.3008 2.4576-7.3216-1.4336-2.56-3.2768-14.336-15.5136-17.92-19.1488-0.4608-0.512-1.3824-0.512-1.9456 0.0512z" fill="#FF6F6F" p-id="15482"></path><path d="M683.1616 727.552h6.4512c0.9216 0 1.7408 0.4608 2.2528 1.2288l1.6896 2.56c0.3072 0.512 0.3584 1.0752 0.1536 1.6384l-0.3584 0.8704c-0.256 0.6656-0.9216 1.1264-1.6384 1.1264h-9.7792c-1.024 0-1.8432-0.8192-1.8432-1.8432v-0.8704c0-0.3072 0.0512-0.5632 0.2048-0.8704l1.6384-3.1744c0.2048-0.3584 0.7168-0.6656 1.2288-0.6656zM737.1776 731.2896h-3.2768c-0.8192 0-1.4848 0.6656-1.4848 1.4848v0.768c0 0.8192 0.6656 1.4848 1.4848 1.4848h9.3184c0.9728 0 1.8432-0.512 2.304-1.3824l1.9456-3.6352c0.4096-0.8192 0.3584-1.792-0.1536-2.56-0.8704-1.2288-2.6112-2.816-5.7344-3.3792l-4.4032 7.2192z" fill="#020624" p-id="15483"></path><path d="M628.736 707.6864c0.8704 0 27.4944-10.1888 27.8016-14.4896 0.3072-4.3008-5.7344-1.5872-12.3392 1.1264-6.6048 2.7136 13.6192-10.9056 11.7248-15.0528-1.8432-4.1472-10.4448-2.304-16.1792 1.024-5.7344 3.2768-4.4544-17.0496-11.6224-18.1248s-39.3728 17.8688-28.3648 31.3344c11.008 13.4656 18.176 17.7664 18.176 17.7664l10.8032-3.584z" fill="#F9CB55" p-id="15484"></path><path d="M642.4064 676.2496c2.6624 0.2048 4.1984 5.8368-5.2736 9.0624-3.84 1.1264 2.0992 2.9696 3.072 4.1984" fill="#3E5BE5" p-id="15485"></path><path d="M640.256 689.5104c0.9728 1.2288-0.4608 7.3728-9.6256 6.2976-9.1648-1.0752-8.192-8.704-8.192-8.704s2.8672-8.96 1.3312-10.3936c-1.536-1.4336-3.4304-9.3696 6.5024-6.7584 2.304 0.4608 2.304-0.3584 2.2016-1.9968-0.1024-1.6384-3.4816-12.2368 0.0512-12.4416 3.4816-0.2048 4.096 4.3008 6.0928 3.84 1.9968-0.4608 5.0688-6.8608 7.0656-5.2736 1.9968 1.6384-1.9968 8.2944-2.9696 8.8576-0.9728 0.5632-0.7168 2.9696 3.5328 2.5088s0.768 6.9632-4.352 8.0384-1.9968 2.56 0.6656 2.7648" fill="#3E5BE5" p-id="15486"></path><path d="M610.048 683.1104c1.9456 1.792 2.6624 4.608 1.792 7.1168-1.7408 5.2736-3.7376 15.4624 5.2736 18.5856 12.3392 4.3008 19.2-0.8704 19.2-0.8704s-7.7312-8.0384-5.4272-11.1616c1.5872-2.1504-1.3824-11.776-7.7312-12.3392-1.792-0.1536-3.5328-0.8192-4.8128-2.1504-3.6864-3.7376-9.728-10.8544-5.4784-13.6192 5.8368-3.84 12.1344-9.0624 1.0752-11.4688-3.9936-0.7168 1.2288-7.168 0.512-9.8816-0.7168-2.7136-6.0928-6.0416-8.8576-1.9968-0.768 1.1776-3.328 0.0512-2.7136-1.8944s-2.304-5.7344-5.6832-4.0448-2.7136 4.4544 3.0208 8.4992c2.0992 1.3312 3.072 3.1744 1.536 3.584-1.536 0.4096-5.4784 0.5632-5.2224 2.8672s1.8432 4.2496 4.9152 4.2496c2.0992 0.4608 1.8944 5.5296-0.9216 5.632-3.1744 0.1024-5.2224 5.2224-0.4608 5.9392 4.7104 0.7168 6.9632-0.9728 8.0384 0.6144 1.0752 1.5872 2.4064 5.12 0.8192 5.4784-1.5872 0.3584-8.3968 1.7408-7.936 2.5088 0.4096 0.6656 5.12 0.7168 9.0624 4.352z" fill="#426AEE" p-id="15487"></path><path d="M605.0816 705.9456h36.6592v10.5984h-36.6592z" fill="#EDABA2" p-id="15488"></path><path d="M611.1232 713.1136h25.1904v22.3744h-25.1904z" fill="#EDABA2" p-id="15489"></path><path d="M678.2976 600.6272m-26.4704 0a26.4704 26.4704 0 1 0 52.9408 0 26.4704 26.4704 0 1 0-52.9408 0Z" fill="#F7C841" p-id="15490"></path><path d="M678.2976 586.3424l-8.3456 14.4384 9.5744 12.6976 8.3456-13.568z" fill="#E5DEFD" p-id="15491"></path><path d="M702.6688 517.8368m-15.4112 0a15.4112 15.4112 0 1 0 30.8224 0 15.4112 15.4112 0 1 0-30.8224 0Z" fill="#F5D7E0" p-id="15492"></path><path d="M702.6688 517.8368m-9.1648 0a9.1648 9.1648 0 1 0 18.3296 0 9.1648 9.1648 0 1 0-18.3296 0Z" fill="#F8DAE0" p-id="15493"></path><path d="M702.6688 517.8368m-7.5776 0a7.5776 7.5776 0 1 0 15.1552 0 7.5776 7.5776 0 1 0-15.1552 0Z" fill="#FB6287" p-id="15494"></path><path d="M678.9632 600.3712m-1.6896 0a1.6896 1.6896 0 1 0 3.3792 0 1.6896 1.6896 0 1 0-3.3792 0Z" fill="#F9F8FD" p-id="15495"></path><path d="M440.1152 889.088c0.9728 0 0.9728-1.536 0-1.536-1.024 0-1.024 1.536 0 1.536z" fill="#FCAFA3" p-id="15496"></path></svg>