<?xml version="1.0" standalone="no"?><!DOCTYPE svg PUBLIC "-//W3C//DTD SVG 1.1//EN" "http://www.w3.org/Graphics/SVG/1.1/DTD/svg11.dtd"><svg t="1607340970632" class="icon" viewBox="0 0 1024 1024" version="1.1" xmlns="http://www.w3.org/2000/svg" p-id="3794" xmlns:xlink="http://www.w3.org/1999/xlink" width="128" height="128"><defs><style type="text/css"></style></defs><path d="M512 28.41849705h-0.78554501c-30.47914606 0-49.48933509 32.67867206-34.87819806 59.38720212 23.25213204 42.41943008 36.13507007 91.28032918 35.50663406 143.28340826-2.042417 153.33838431-124.74454624 280.12534755-277.92582155 286.88103459-55.93080411 2.51374401-108.71942821-10.99763002-153.9668203-36.13507008-23.09502305-12.72582902-51.68886111 3.14217999-51.6888611 29.53649206v0.628436c0 269.28482653 220.26681844 487.35211897 490.49429898 483.58150295 260.48672252-3.61350702 473.05519994-216.18198443 476.66870693-476.66870694 3.92772502-270.22748054-214.13956742-490.49429897-483.42439395-490.49429896z m0 0" fill="#FCE750" p-id="3795"></path><path d="M597.31018717 155.51967829a36.60639708 36.60639708 0 1 0 73.21279415 0 36.60639708 36.60639708 0 1 0-73.21279415 0z" fill="#FCE750" p-id="3796"></path><path d="M849.78435067 634.07369324c-6.75568702 9.26943102-18.06753504 14.13981003-29.37938305 12.88293802-11.46895703-1.25687199-21.20971504-8.48388603-25.76587607-19.01018902-4.556161-10.52630302-3.14217999-22.62369604 3.61350702-31.89312707 76.35497415-103.53483121 38.49170507-261.58648551-84.52464215-352.23837871-14.29691903-10.52630302-17.28199003-30.63625506-6.75568704-44.93317408 10.52630302-14.29691903 30.63625506-17.28199003 44.93317411-6.75568701C903.20141077 303.67346558 947.19193087 501.94502398 849.78435067 634.07369324z" fill="#FFFFFF" p-id="3797"></path></svg>