<?xml version="1.0" standalone="no"?><!DOCTYPE svg PUBLIC "-//W3C//DTD SVG 1.1//EN" "http://www.w3.org/Graphics/SVG/1.1/DTD/svg11.dtd"><svg t="1607322869290" class="icon" viewBox="0 0 1024 1024" version="1.1" xmlns="http://www.w3.org/2000/svg" p-id="8902" xmlns:xlink="http://www.w3.org/1999/xlink" width="128" height="128"><defs><style type="text/css"></style></defs><path d="M872.228571 969.142857l115.2-164.571428v164.571428z" fill="#F2A319" p-id="8903"></path><path d="M848.457143 969.142857L987.428571 769.828571V804.571429l-115.2 164.571428z" fill="#F2A319" p-id="8904"></path><path d="M824.685714 969.142857L987.428571 735.085714v34.742857L848.457143 969.142857z" fill="#F2A419" p-id="8905"></path><path d="M799.085714 969.142857L987.428571 700.342857v34.742857L824.685714 969.142857z" fill="#F2A519" p-id="8906"></path><path d="M775.314286 969.142857L987.428571 665.6v34.742857L799.085714 969.142857z" fill="#F3A619" p-id="8907"></path><path d="M751.542857 969.142857L987.428571 630.857143v34.742857L775.314286 969.142857z" fill="#F3A719" p-id="8908"></path><path d="M725.942857 969.142857L987.428571 596.114286v34.742857L751.542857 969.142857z" fill="#F3A819" p-id="8909"></path><path d="M702.171429 969.142857L987.428571 561.371429v34.742857L725.942857 969.142857z" fill="#F3A918" p-id="8910"></path><path d="M678.4 969.142857L987.428571 526.628571v34.742858L702.171429 969.142857z" fill="#F4AA18" p-id="8911"></path><path d="M654.628571 969.142857L987.428571 491.885714v34.742857L678.4 969.142857z" fill="#F4AB18" p-id="8912"></path><path d="M629.028571 969.142857L987.428571 457.142857v34.742857L654.628571 969.142857z" fill="#F4AC18" p-id="8913"></path><path d="M605.257143 969.142857L987.428571 424.228571V457.142857L629.028571 969.142857z" fill="#F4AD18" p-id="8914"></path><path d="M581.485714 969.142857L987.428571 389.485714v34.742857L605.257143 969.142857z" fill="#F4AE18" p-id="8915"></path><path d="M555.885714 969.142857L987.428571 354.742857v34.742857L581.485714 969.142857z" fill="#F5AF18" p-id="8916"></path><path d="M532.114286 969.142857L987.428571 320v34.742857L555.885714 969.142857z" fill="#F5B018" p-id="8917"></path><path d="M508.342857 969.142857L987.428571 285.257143v34.742857L532.114286 969.142857z" fill="#F5B118" p-id="8918" data-spm-anchor-id="a313x.7781069.0.i7" class="selected"></path><path d="M484.571429 969.142857L987.428571 250.514286v34.742857L508.342857 969.142857z" fill="#F5B218" p-id="8919"></path><path d="M458.971429 969.142857L987.428571 215.771429v34.742857L484.571429 969.142857z" fill="#F5B318" p-id="8920"></path><path d="M435.2 969.142857L987.428571 181.028571v34.742858L458.971429 969.142857z" fill="#F6B417" p-id="8921"></path><path d="M411.428571 969.142857L987.428571 146.285714v34.742857L435.2 969.142857z" fill="#F6B517" p-id="8922"></path><path d="M385.828571 969.142857L987.428571 111.542857V146.285714L411.428571 969.142857z" fill="#F6B617" p-id="8923"></path><path d="M362.057143 969.142857L987.428571 76.8v34.742857L385.828571 969.142857z" fill="#F6B717" p-id="8924"></path><path d="M338.285714 969.142857L987.428571 42.057143v34.742857L362.057143 969.142857z" fill="#F7B817" p-id="8925"></path><path d="M314.514286 969.142857L967.314286 36.571429H987.428571v5.485714L338.285714 969.142857z" fill="#F7B917" p-id="8926"></path><path d="M288.914286 969.142857L943.542857 36.571429h23.771429L314.514286 969.142857z" fill="#F7BA17" p-id="8927"></path><path d="M265.142857 969.142857L917.942857 36.571429h25.6L288.914286 969.142857z" fill="#F7BB17" p-id="8928"></path><path d="M241.371429 969.142857L894.171429 36.571429h23.771428L265.142857 969.142857z" fill="#F7BC17" p-id="8929"></path><path d="M215.771429 969.142857L870.4 36.571429h23.771429L241.371429 969.142857z" fill="#F8BD17" p-id="8930"></path><path d="M192 969.142857L844.8 36.571429h25.6L215.771429 969.142857z" fill="#F8BE17" p-id="8931"></path><path d="M168.228571 969.142857L821.028571 36.571429h23.771429L192 969.142857z" fill="#F8C016" p-id="8932"></path><path d="M144.457143 969.142857L797.257143 36.571429h23.771428L168.228571 969.142857z" fill="#F8C116" p-id="8933"></path><path d="M118.857143 969.142857L773.485714 36.571429h23.771429L144.457143 969.142857z" fill="#F9C216" p-id="8934"></path><path d="M95.085714 969.142857L747.885714 36.571429h25.6L118.857143 969.142857z" fill="#F9C316" p-id="8935"></path><path d="M71.314286 969.142857L724.114286 36.571429h23.771428L95.085714 969.142857z" fill="#F9C416" p-id="8936"></path><path d="M45.714286 969.142857L700.342857 36.571429h23.771429L71.314286 969.142857z" fill="#F9C516" p-id="8937"></path><path d="M36.571429 949.028571L674.742857 36.571429h25.6L45.714286 969.142857H36.571429z" fill="#F9C616" p-id="8938"></path><path d="M36.571429 914.285714L650.971429 36.571429h23.771428L36.571429 949.028571z" fill="#FAC716" p-id="8939"></path><path d="M36.571429 879.542857L627.2 36.571429h23.771429L36.571429 914.285714z" fill="#FAC816" p-id="8940"></path><path d="M36.571429 844.8L603.428571 36.571429h23.771429L36.571429 879.542857z" fill="#FAC916" p-id="8941"></path><path d="M36.571429 810.057143L577.828571 36.571429H603.428571L36.571429 844.8z" fill="#FACA16" p-id="8942"></path><path d="M36.571429 775.314286L554.057143 36.571429h23.771428L36.571429 810.057143z" fill="#FBCB15" p-id="8943"></path><path d="M36.571429 740.571429L530.285714 36.571429h23.771429L36.571429 775.314286z" fill="#FBCC15" p-id="8944"></path><path d="M36.571429 705.828571L504.685714 36.571429H530.285714L36.571429 740.571429z" fill="#FBCD15" p-id="8945"></path><path d="M36.571429 671.085714L480.914286 36.571429h23.771428L36.571429 705.828571z" fill="#FBCE15" p-id="8946"></path><path d="M36.571429 636.342857L457.142857 36.571429h23.771429L36.571429 671.085714z" fill="#FBCF15" p-id="8947"></path><path d="M36.571429 601.6L433.371429 36.571429H457.142857L36.571429 636.342857z" fill="#FCD015" p-id="8948"></path><path d="M36.571429 566.857143L407.771429 36.571429h25.6L36.571429 601.6z" fill="#FCD115" p-id="8949"></path><path d="M36.571429 532.114286L384 36.571429h23.771429L36.571429 566.857143z" fill="#FCD215" p-id="8950"></path><path d="M36.571429 497.371429L360.228571 36.571429H384L36.571429 532.114286z" fill="#FCD315" p-id="8951"></path><path d="M36.571429 462.628571L334.628571 36.571429h25.6L36.571429 497.371429z" fill="#FCD415" p-id="8952"></path><path d="M36.571429 427.885714L310.857143 36.571429h23.771428L36.571429 462.628571z" fill="#FDD515" p-id="8953"></path><path d="M36.571429 393.142857L287.085714 36.571429H310.857143L36.571429 427.885714z" fill="#FDD614" p-id="8954"></path><path d="M36.571429 358.4L263.314286 36.571429h23.771428L36.571429 393.142857z" fill="#FDD714" p-id="8955"></path><path d="M36.571429 323.657143L237.714286 36.571429h25.6L36.571429 358.4z" fill="#FDD814" p-id="8956"></path><path d="M36.571429 288.914286L213.942857 36.571429H237.714286L36.571429 323.657143z" fill="#FED914" p-id="8957"></path><path d="M36.571429 254.171429L190.171429 36.571429h23.771428L36.571429 288.914286z" fill="#FEDA14" p-id="8958"></path><path d="M36.571429 219.428571L164.571429 36.571429h25.6L36.571429 254.171429z" fill="#FEDB14" p-id="8959"></path><path d="M164.571429 36.571429L36.571429 219.428571V36.571429z" fill="#FEDB14" p-id="8960"></path><path d="M310.857143 438.857143m-54.857143 0a54.857143 54.857143 0 1 0 109.714286 0 54.857143 54.857143 0 1 0-109.714286 0Z" fill="#FFFFFF" p-id="8961"></path><path d="M530.285714 438.857143m-54.857143 0a54.857143 54.857143 0 1 0 109.714286 0 54.857143 54.857143 0 1 0-109.714286 0Z" fill="#FFFFFF" p-id="8962"></path><path d="M749.714286 438.857143m-54.857143 0a54.857143 54.857143 0 1 0 109.714286 0 54.857143 54.857143 0 1 0-109.714286 0Z" fill="#FFFFFF" p-id="8963"></path></svg>