<?xml version="1.0" standalone="no"?><!DOCTYPE svg PUBLIC "-//W3C//DTD SVG 1.1//EN" "http://www.w3.org/Graphics/SVG/1.1/DTD/svg11.dtd"><svg t="1607322139760" class="icon" viewBox="0 0 1024 1024" version="1.1" xmlns="http://www.w3.org/2000/svg" p-id="15086" xmlns:xlink="http://www.w3.org/1999/xlink" width="128" height="128"><defs><style type="text/css"></style></defs><path d="M611.84 0a214.4 214.4 0 0 0-171.52 89.6A215.68 215.68 0 0 0 268.16 0 231.68 231.68 0 0 0 48 241.28a316.16 316.16 0 0 0 64 179.2 1555.2 1555.2 0 0 0 300.16 298.24 42.24 42.24 0 0 0 28.16 10.24 44.8 44.8 0 0 0 28.16-10.24A1600 1600 0 0 0 768 420.48a316.16 316.16 0 0 0 64-179.2A231.68 231.68 0 0 0 611.84 0z" fill="#e0620d" p-id="15087" data-spm-anchor-id="a313x.7781069.0.i47" class=""></path><path d="M846.08 192a159.36 159.36 0 0 0-137.6 41.6 159.36 159.36 0 0 0-112.64-89.6 172.16 172.16 0 0 0-192 144.64 241.92 241.92 0 0 0 21.12 139.52 1210.24 1210.24 0 0 0 176.64 259.2 34.56 34.56 0 0 0 19.2 10.88 32.64 32.64 0 0 0 21.76-3.2 1175.04 1175.04 0 0 0 260.48-174.72A243.84 243.84 0 0 0 972.8 396.8 172.16 172.16 0 0 0 846.08 192z" fill="#e48c67" p-id="15088" data-spm-anchor-id="a313x.7781069.0.i49" class=""></path><path d="M933.76 1024H90.24A90.24 90.24 0 0 1 0 933.76V512a30.08 30.08 0 0 1 30.08-30.08h181.76a30.08 30.08 0 0 1 26.88 16.64l51.84 103.04h442.88l51.84-103.04a30.08 30.08 0 0 1 26.88-16.64h181.76A30.08 30.08 0 0 1 1024 512v421.76A90.24 90.24 0 0 1 933.76 1024z" fill="#F6B73C" p-id="15089"></path><path d="M512 814.08m-90.24 0a90.24 90.24 0 1 0 180.48 0 90.24 90.24 0 1 0-180.48 0Z" fill="#EC9046" p-id="15090"></path></svg>