<?xml version="1.0" standalone="no"?><!DOCTYPE svg PUBLIC "-//W3C//DTD SVG 1.1//EN" "http://www.w3.org/Graphics/SVG/1.1/DTD/svg11.dtd"><svg t="1607343095895" class="icon" viewBox="0 0 1024 1024" version="1.1" xmlns="http://www.w3.org/2000/svg" p-id="7471" xmlns:xlink="http://www.w3.org/1999/xlink" width="128" height="128"><defs><style type="text/css"></style></defs><path d="M282.001 639.965L513 873.572l431.069-425.363-243.023-228.604z" fill="#d81e06" p-id="7472" data-spm-anchor-id="a313x.7781069.0.i9" class="selected"></path><path d="M939.777 402.166L750.019 210.494c-26.474-25.71-68.593-25.71-95.067 0L511.049 352.95 368.593 210.494c-26.557-25.508-68.513-25.508-95.071 0L83.769 400.25c-26.075 26.178-26.075 68.509 0 94.685l379.509 379.512a66.692 66.692 0 0 0 47.535 19.55c1.23 0.043 2.456 0.043 3.68 0.018a66.667 66.667 0 0 0 45.772-17.651l379.513-379.513c26.074-26.176 26.074-68.506-0.001-94.685z m-673.28 194.231L124.4 454.302a9.966 9.966 0 0 1-2.681-6.9 9.577 9.577 0 0 1 2.681-6.517L314.158 251.13a9.59 9.59 0 0 1 6.9-3.069 9.587 9.587 0 0 1 8.817 1.153l142.26 142.26-198.612 196.613a67.483 67.483 0 0 0-7.026 8.31z m632.645-140.178L755.915 599.445 519.629 835.729a8.046 8.046 0 0 1-6.9 3.903 8.037 8.037 0 0 1-6.549-3.396c-0.119-0.167-0.245-0.329-0.351-0.507L316.075 644.057a9.965 9.965 0 0 1-2.684-6.9 9.188 9.188 0 0 1 2.684-6.518l197.613-197.613 38.718-38.718L695.584 251.13a9.6 9.6 0 0 1 6.9-3.069 9.59 9.59 0 0 1 4.986 4.987l191.672 189.754a9.6 9.6 0 0 1 2.684 6.518 9.979 9.979 0 0 1-2.684 6.899z" fill="#1a1a1a" p-id="7473"></path></svg>