<svg class="icon" viewBox="0 0 1024 1024" xmlns="http://www.w3.org/2000/svg" width="200" height="200"><defs><style/></defs><path d="M228.224 652.928h567.552q142.89 0 142.89 142.89 0 142.891-142.89 142.891H228.224q-142.89 0-142.89-142.89 0-142.891 142.89-142.891zM679.253 188.501C632.96 132.907 575.147 85.248 511.957 85.248h-5.802v.47c-60.502 2.687-116.566 48.938-161.067 102.783a212.437 212.437 0 00-48.939 125.014 216.405 216.405 0 10432.47 11.562 213.248 213.248 0 00-49.366-136.576z" fill="#FFB531"/><path d="M482.432 89.003a22.528 22.528 0 0127.733 17.408c9.088 49.877 28.032 175.061-4.01 207.104-29.312 29.312-143.36 12.33-189.952 3.882a21.76 21.76 0 01-18.048-24.149 212.907 212.907 0 0146.933-104.747 274.048 274.048 0 01137.344-99.498z" fill="#030835"/></svg>