<?xml version="1.0" standalone="no"?><!DOCTYPE svg PUBLIC "-//W3C//DTD SVG 1.1//EN" "http://www.w3.org/Graphics/SVG/1.1/DTD/svg11.dtd"><svg t="1606030334856" class="icon" viewBox="0 0 1024 1024" version="1.1" xmlns="http://www.w3.org/2000/svg" p-id="8128" xmlns:xlink="http://www.w3.org/1999/xlink" width="128" height="128"><defs><style type="text/css"></style></defs><path d="M512 967.111c250.311 0 455.111-204.8 455.111-455.111 0-17.067-11.378-28.444-28.444-28.444S910.222 494.933 910.222 512c0 216.178-176.355 392.533-392.533 392.533S119.467 728.178 119.467 512 295.822 119.467 512 119.467c17.067 0 28.444-11.378 28.444-28.445S529.067 56.89 512 56.89c-250.311 0-455.111 204.8-455.111 455.111S261.689 967.111 512 967.111z" fill="#333333" p-id="8129"></path><path d="M512 978.489C256 978.489 51.2 768 51.2 512 51.2 256 261.689 51.2 512 51.2c22.756 0 39.822 17.067 39.822 39.822S534.756 125.156 512 125.156c-210.489 0-386.844 170.666-386.844 386.844 0 210.489 170.666 386.844 386.844 386.844 210.489 0 386.844-170.666 386.844-386.844 0-22.756 17.067-39.822 39.823-39.822 22.755 0 39.822 17.066 39.822 39.822C978.489 768 768 978.489 512 978.489z m0-915.911c-244.622 0-449.422 204.8-449.422 449.422s199.11 449.422 443.733 449.422S955.733 762.312 955.733 512c0-11.378-11.377-22.756-22.755-22.756S915.91 500.622 915.91 512c0 221.867-182.044 403.911-403.911 403.911S108.089 733.867 108.089 512 290.133 108.089 512 108.089c11.378 0 22.756-11.378 22.756-22.756S523.378 62.578 512 62.578z" fill="#333333" p-id="8130"></path><path d="M694.044 244.622c-164.977 0-238.933 85.334-238.933 290.134v5.688c0 17.067 17.067 28.445 28.445 28.445 17.066 0 28.444-17.067 28.444-34.133C512 358.4 557.511 301.51 694.044 301.51h68.267l-22.755 22.756c-11.378 11.377-11.378 28.444 0 39.822 11.377 11.378 28.444 11.378 39.822 0l62.578-68.267c17.066-17.066 17.066-45.51 0-62.578l-62.578-68.266c-11.378 5.689-28.445 5.689-39.822 11.378-11.378 11.377-11.378 28.444 0 39.822l22.755 22.755h-68.267z" fill="#333333" p-id="8131"></path><path d="M483.556 574.578c-17.067 0-34.134-17.067-39.823-34.134v-5.688c0-210.49 73.956-301.512 244.623-301.512h51.2l-11.378-5.688c-11.378-17.067-11.378-39.823 5.689-51.2 17.066-11.378 34.133-11.378 51.2 0l62.577 68.266c17.067 17.067 17.067 51.2 0 73.956l-62.577 68.266c-11.378 17.067-39.823 17.067-51.2 0-11.378-17.066-11.378-39.822 0-51.2l5.689-22.755h-45.512c-130.844 0-170.666 56.889-170.666 227.555 0 17.067-17.067 34.134-39.822 34.134zM694.044 250.31c-164.977 0-227.555 79.645-227.555 284.445v5.688c0 11.378 11.378 17.067 22.755 17.067s17.067-11.378 17.067-22.755c0-176.356 51.2-244.623 187.733-244.623h85.334l-39.822 45.511c-5.69 5.69-5.69 22.756 0 28.445 5.688 5.689 22.755 5.689 28.444 0l62.578-68.267c11.378-11.378 11.378-34.133 0-45.51L768 182.043c-5.689-5.688-17.067-5.688-28.444 0-5.69 5.69-11.378 22.756 0 28.445l34.133 39.822h-79.645z" fill="#333333" p-id="8132"></path></svg>