<?xml version="1.0" standalone="no"?><!DOCTYPE svg PUBLIC "-//W3C//DTD SVG 1.1//EN" "http://www.w3.org/Graphics/SVG/1.1/DTD/svg11.dtd"><svg t="1607341116093" class="icon" viewBox="0 0 1024 1024" version="1.1" xmlns="http://www.w3.org/2000/svg" p-id="4661" xmlns:xlink="http://www.w3.org/1999/xlink" width="128" height="128"><defs><style type="text/css"></style></defs><path d="M742.912 629.248c-98.304 0-177.664 79.872-177.664 177.664s79.872 177.664 177.664 177.664c98.304 0 177.664-79.872 177.664-177.664s-79.36-177.664-177.664-177.664z m116.224 121.856l-107.008 148.992c-11.264 15.36-33.792 17.408-47.104 3.584L629.76 827.904c-12.288-12.288-11.776-31.744 0-44.032 12.288-12.288 31.744-11.776 44.032 0l49.152 49.664 85.504-119.296c10.24-13.824 29.184-16.896 43.52-7.168 14.336 10.752 17.408 29.696 7.168 44.032z" fill="#3C90FF" p-id="4662"></path><path d="M929.28 187.392c-144.896-16.384-285.696-69.12-422.912-159.232-136.704 106.496-276.48 159.232-419.328 159.232v409.6c0 94.72 222.72 393.216 419.328 393.216 25.6 0 51.2-5.12 77.312-14.336-47.104-43.008-77.312-104.96-76.8-174.08 0.512-80.896 41.984-161.28 115.712-204.288-30.208-20.992-67.072-32.768-104.96-32.768-90.112 0-164.352 61.952-173.056 144.384-0.512 5.12-1.024 9.728-1.024 15.36 0 15.36-12.8 28.16-28.16 28.16s-28.16-12.8-28.16-28.16c0-6.656 0.512-13.824 1.024-20.992 5.632-53.76 32.256-102.912 74.752-139.264 15.36-12.8 32.256-23.552 49.664-32.256-41.472-29.696-68.096-78.336-68.096-133.12 0-90.624 73.728-164.352 164.864-164.352 90.624 0 164.352 73.728 164.352 164.352 0 52.224-24.576 98.304-61.952 128.512 26.112 11.264 50.176 26.624 70.656 46.08 18.944-4.608 38.912-7.68 60.416-7.68 69.12-0.512 131.584 29.696 174.592 77.312 7.68-18.432 11.776-34.304 11.776-46.08v-409.6z" fill="#3C90FF" p-id="4663"></path><path d="M508.928 399.36m-112.128 0a112.128 112.128 0 1 0 224.256 0 112.128 112.128 0 1 0-224.256 0Z" fill="#3C90FF" p-id="4664"></path></svg>