<?xml version="1.0" standalone="no"?><!DOCTYPE svg PUBLIC "-//W3C//DTD SVG 1.1//EN" "http://www.w3.org/Graphics/SVG/1.1/DTD/svg11.dtd"><svg t="1608467638873" class="icon" viewBox="0 0 1024 1024" version="1.1" xmlns="http://www.w3.org/2000/svg" p-id="8751" xmlns:xlink="http://www.w3.org/1999/xlink" width="128" height="128"><defs><style type="text/css"></style></defs><path d="M850.723 458.57c-11.73-3.788-21.587-2.39-31.373 4.25-30.102 20.44-60.4 40.588-90.696 60.734l-24.719 16.428c-2.152-8.277-4.515-16.763-8.304-24.733-4.166-8.752-9.8-16.385-15.254-23.781a3.637 3.637 0 0 1-0.28-0.364c72.772-53.254 83.384-139.349 61.49-199.048-26.103-71.163-93.87-116.224-170.695-112.658-36.406 1.719-69.261 14.148-97.685 36.937-30.674 24.621-50.863 55.728-60.3 92.807-25.068-48.962-65.977-78.63-116.252-83.006-64.466-5.648-121.257 25.586-149.359 80.866-22.104 43.481-27.752 112.743 25.25 170.038-27.85 21.236-41.79 50.918-41.468 88.36 0.336 39.803 0.265 79.593 0.196 119.397l-0.07 53.142c0.028 64.83 43.593 108.395 108.422 108.408l178.733 0.015 178.734-0.015c63.194 0 106.325-41.133 108.968-102.97l24.299 20.244c29.919 24.914 59.838 49.815 89.59 74.91 8.165 6.893 16.581 8.92 26.718 6.25 26.019-6.754 43.537-28.647 43.607-54.47 0.223-92.89 0.21-185.794 0.027-278.684-0.07-24.004-15.966-45.34-39.58-53.056z" fill="#333333" p-id="8752"></path><path d="M840.851 512v275.24l-72.316-60.261c-20.63-17.246-41.258-34.508-62.053-51.54-2.968-2.437-3.1-3.25-3.035-5.654 0.249-10.73 0.232-21.492 0.199-32.221-0.017-10.762-0.033-21.525 0.232-32.287 0.018-0.53 0.316-1.526 0.614-2.172 43.728-29.55 87.673-58.786 131.6-88.004l4.76-3.101z" fill="#FFFFFF" p-id="8753"></path><path d="M579.63 209.133l1.026 13.396c71.363 0.556 129.45 58.904 129.45 130.094 0 34.664-13.553 67.332-38.175 91.97-24.603 24.639-57.219 38.21-92.213 38.21h-0.017c-71.676-0.21-129.867-58.818-129.693-130.65 0.173-71.484 58.313-129.64 129.607-129.64l0.015-13.38z" fill="#707070" p-id="8754" data-spm-anchor-id="a313x.7781069.0.i11" class="selected"></path><path d="M181.488 560.712c0.03-28.713 14.742-43.274 43.773-43.274l193.592-0.015 193.591 0.015c28.307 0 43.274 14.773 43.304 42.73 0.045 63.5 0.06 127.026 0 190.525-0.03 27.082-14.847 42.021-41.747 42.066l-80.462 0.045-115.14-0.03-58.076 0.015-135.516-0.03c-29.136-0.03-43.304-14.259-43.32-43.562a99695.923 99695.923 0 0 1 0-188.485z" fill="#FFFFFF" p-id="8755"></path><path d="M280.237 267.705v-14.393l0.149 14.393c28.878 0.038 56.156 11.489 76.768 32.287 20.61 20.742 31.839 48.076 31.671 76.918-0.373 59.284-49.1 107.527-108.644 107.527-60.309-0.02-107.77-47.349-108.05-107.769-0.13-29.121 11.097-56.51 31.616-77.123 20.408-20.537 47.573-31.84 76.49-31.84z" fill="#707070" p-id="8756" data-spm-anchor-id="a313x.7781069.0.i10" class="selected"></path><path d="M442.728 454.949h-37.496c7.312-11.296 12.946-22.887 16.958-34.826a175.09 175.09 0 0 0 20.538 34.826z" fill="#FFFFFF" p-id="8757"></path></svg>