<?xml version="1.0" standalone="no"?><!DOCTYPE svg PUBLIC "-//W3C//DTD SVG 1.1//EN" "http://www.w3.org/Graphics/SVG/1.1/DTD/svg11.dtd"><svg t="1608641354350" class="icon" viewBox="0 0 1024 1024" version="1.1" xmlns="http://www.w3.org/2000/svg" p-id="2869" xmlns:xlink="http://www.w3.org/1999/xlink" width="128" height="128"><defs><style type="text/css"></style></defs><path d="M0 512.000125c0 282.769931 229.219944 511.999875 511.999875 511.999875s511.999875-229.229944 511.999875-511.999875S794.759806 0.00025 511.999875 0.00025 0 229.230194 0 512.000125z" fill="#36CFC9" p-id="2870"></path><path d="M440.309893 399.360152a92.159978 92.159978 0 0 0 184.319955 0.07v-0.07a92.159978 92.159978 0 0 0-184.319955-0.079999z" fill="#08979C" p-id="2871"></path><path d="M511.999875 0.00025q19.529995 0 38.689991 1.43a870.189788 870.189788 0 0 1 222.159945 225.049945A858.079791 858.079791 0 0 1 909.259778 189.000204a512.589875 512.589875 0 0 1 39.44999 55.619986 797.879805 797.879805 0 0 0-142.439965 35.189992q13.559997 23.489994 25.679994 47.899988a92.159978 92.159978 0 0 1 89.609978 94.639977c0 1.12-0.09 2.249999-0.16 3.369999a685.479833 685.479833 0 0 1 101.939975 60.359985 514.999874 514.999874 0 0 1-6.859998 113.779973 663.299838 663.299838 0 0 0-99.569976 21.269994 876.539786 876.539786 0 0 1 4.679999 90.539978 873.149787 873.149787 0 0 1-7.999998 117.889971 514.999874 514.999874 0 0 1-77.759981 78.999981 805.769803 805.769803 0 0 0 24.289994-196.889952q0-34.899991-2.999999-69.719983A667.439837 667.439837 0 0 0 588.999856 840.190045a91.699978 91.699978 0 0 1 15.169996 50.679988 92.939977 92.939977 0 0 1-2.629999 21.999994 622.789848 622.789848 0 0 0 126.729969 63.329985 508.179876 508.179876 0 0 1-84.839979 30.799992 684.859833 684.859833 0 0 1-75.619982-42.749989 92.339977 92.339977 0 0 1-67.219983 18.119995q-9.239998 20.139995-17.119996 40.87999a512.999875 512.999875 0 0 1-62.769985-7.339998q11.059997-31.099992 24.919994-61.069985A92.209977 92.209977 0 0 1 430.999895 846.850043a687.999832 687.999832 0 0 1-94.919977-135.749967 798.639805 798.639805 0 0 0-66.279984 252.099939A513.229875 513.229875 0 0 1 211.999948 927.000024a859.49979 859.49979 0 0 1 90.839978-288.11993 681.249834 681.249834 0 0 1-32.409992-108.999973A627.459847 627.459847 0 0 0 66.279984 764.120063a508.889876 508.889876 0 0 1-32.439992-68.679983A689.529832 689.529832 0 0 1 259.999937 463.230137a694.99983 694.99983 0 0 1-3.999999-74.109982A682.999833 682.999833 0 0 1 362.209912 22.250245 511.939875 511.939875 0 0 1 511.999875 0.00025z m380.209907 487.299881q2.599999-2.419999 4.999999-4.999999a624.659847 624.659847 0 0 1 97.169976 58.699986 725.689823 725.689823 0 0 0-86.109979 18.689995q-6.459998-36.539991-16.059996-72.389982z m-154.379962-57.219986a92.169977 92.169977 0 0 0 97.279976 81.74998q8.519998 33.299992 14.149997 67.249984A728.789822 728.789822 0 0 0 539.999868 803.050054a92.479977 92.479977 0 0 0-63.339984 2.679999A625.329847 625.329847 0 0 1 370.919909 642.400093a806.089803 806.089803 0 0 1 120.169971-160.659961 92.209977 92.209977 0 0 0 131.249968-61.899985h2.29a627.399847 627.399847 0 0 1 113.199972 10.239998z m34.999991-82.99998a92.669977 92.669977 0 0 0-21.089995 23.109995 688.339832 688.339832 0 0 0-109.429973-11.539998 802.219804 802.219804 0 0 1 105.999974-56.129986q12.999997 21.879995 24.529994 44.559989z m-58.229985-96.839976a807.719803 807.719803 0 0 0-267.999935-241.479941 621.879848 621.879848 0 0 0-129.169968 380.359907q0 20.689995 1.329999 41.05999a681.999833 681.999833 0 0 1 122.99997-47.139989 92.209977 92.209977 0 0 1 142.609965-59.869985 864.429789 864.429789 0 0 1 130.229969-72.939982zM438.299893 448.100141a620.469849 620.469849 0 0 0-111.849973 47.369988A619.709849 619.709849 0 0 0 343.709916 569.000111a868.209788 868.209788 0 0 1 94.589977-120.89997z" fill="#B5F5EC" p-id="2872"></path></svg>